<svg width="848" height="642" fill="none" xmlns="http://www.w3.org/2000/svg"><path opacity=".5" d="M437 550.964c129.787 0 235-108.563 235-242.482C672 174.563 566.787 66 437 66S202 174.563 202 308.482c0 133.919 105.213 242.482 235 242.482z" stroke="#fff" stroke-width="88"/><path d="M456.898 323.617l13.604.187.215-14.249-13.549-1.857-.27 15.919zm45.803-3.724l13.618-2.708-2.841-13.965-13.919 1.056 3.142 15.617z" fill="#BF0830"/><path d="M480.656 200.304c-.508 14.706-2.713 72.273-7.351 109.896a4.98 4.98 0 01-4.977 4.346 38.964 38.964 0 01-11.037-1.638 4.975 4.975 0 01-3.577-4.661l-1.889-114.548a4.945 4.945 0 01.059-.833l.087-.567a5.025 5.025 0 012.465-3.534 5.037 5.037 0 014.296-.331l18.708 7.086a4.942 4.942 0 013.216 4.784z" fill="#1A2578"/><path d="M500.344 193.672a576.772 576.772 0 004.437 61.455c2.324 17.894 8.961 36.479 10.036 52.068a4.187 4.187 0 01-3.321 4.364 38.64 38.64 0 01-12.611.631 4.214 4.214 0 01-3.66-3.202l-14.587-49.324-8.842-49.859-9.478-27.12 38.026 10.987z" fill="#2836A5"/><path d="M470.813 325.505h-11.93l-4.839-5.196-8.847 5.196h-1.903a1.37 1.37 0 00-1.372 1.07 1.345 1.345 0 001.331 1.606h27.738a.373.373 0 00.371-.366v-1.779a.54.54 0 00-.341-.495.528.528 0 00-.208-.036z" fill="#AE253D"/><path d="M470.708 325.52v-4.826s-2.012-2.667-5.068-1.308c0 0-4.629 3.239-8.691-.677l-10.127 4.428s-2.777.915-3.527 2.383h27.413z" fill="#1F1587"/><path d="M516.967 318.041l-11.468 3.252-6.102-3.659-7.044 7.405-1.83.517a1.37 1.37 0 00-1.025 1.409 1.381 1.381 0 00.592.991 1.374 1.374 0 001.138.189l26.658-7.565a.379.379 0 00.222-.176.376.376 0 00.03-.282l-.499-1.715a.542.542 0 00-.672-.366z" fill="#AE253D"/><path d="M516.867 318.08l-1.373-4.638s-2.676-2.013-5.233.128c0 0-3.54 4.373-8.558 1.72l-8.49 7.017s-2.415 1.637-2.744 3.256l26.398-7.483z" fill="#1F1587"/><path d="M452.777 130.912s-6.656-11.083-7.25-12.807c-1.341-3.87-4.931-39.417-4.931-39.417l10.699-.754 5.946 27.999 7.978 17.459-12.442 7.52z" fill="#BF0830"/><path d="M439.343 66.512a1.05 1.05 0 011.312.576l1.4 3.106a.237.237 0 00.252.147.244.244 0 00.184-.109.238.238 0 00.039-.102.238.238 0 00-.008-.11l-1.441-4.825a.828.828 0 01.745-1.102 1.34 1.34 0 011.345.914l1.469 4.917a.245.245 0 00.26.178h.083a.248.248 0 00.218-.172c.01-.031.013-.064.01-.097l-.535-5.672a1.06 1.06 0 01.86-1.148 1.03 1.03 0 011.185.914l.54 5.71a.237.237 0 00.087.169.24.24 0 00.182.054l.266-.023a.251.251 0 00.228-.242l.197-5.32a1.05 1.05 0 01.997-1.025 1.024 1.024 0 011.057 1.066s.137 8.129.265 9.396l2.287-1.894a1.033 1.033 0 01.695-.369 1.02 1.02 0 01.751.232 1.043 1.043 0 01.369.696 1.02 1.02 0 01-.232.754l-3.604 5.558c-.234.283-.975.356-1.583.27-5.983 1.029-6.912 1.138-8.549 1.266l-.389-6.477a15.495 15.495 0 00-1.331-5.411l-.197-.43a1.026 1.026 0 01.586-1.395zm74.101 71.23s8.618-9.638 9.524-11.207c2.04-3.549 12.241-37.787 12.241-37.787l-10.366-2.745-11.106 26.384-11.12 15.671 10.827 9.684z" fill="#BF0830"/><path d="M538.708 77.01a1.047 1.047 0 00-1.395.316l-1.958 2.79a.238.238 0 01-.274.097.248.248 0 01-.16-.14.245.245 0 01.009-.213l2.319-4.469a.84.84 0 00.046-.743.843.843 0 00-.568-.483 1.336 1.336 0 00-1.491.64l-2.365 4.575a.257.257 0 01-.292.128l-.083-.027a.238.238 0 01-.15-.117.243.243 0 01-.019-.19l1.587-5.489a1.044 1.044 0 00-.627-1.285 1.026 1.026 0 00-1.143.308c-.09.108-.157.234-.197.369l-1.596 5.489a.257.257 0 01-.311.174l-.256-.078a.25.25 0 01-.142-.104.25.25 0 01-.037-.17l.81-5.265a1.056 1.056 0 00-.791-1.194 1.031 1.031 0 00-1.24.846s-1.661 7.96-2.022 9.185l-1.894-2.287a1.031 1.031 0 00-1.889.212 1.03 1.03 0 00.087.78l2.498 6.14c.178.324.887.53 1.5.562 5.686 2.131 6.578 2.415 8.165 2.845l1.596-6.29a15.512 15.512 0 012.324-5.063l.27-.385a1.031 1.031 0 00.162-.799 1.02 1.02 0 00-.473-.664zm-55.966 34.71l-3.041 7.776s-1.139 2.594 1.038 3.824l-2.607 4.931c-.673 1.244.425 1.217 1.527 2.104a7.643 7.643 0 002.045 1.185c2.635 1.029 4.835-.389 5.439-1.29.604-.901 1.788-5.883 1.788-5.883l.988-2.287 3.202-9.107-10.379-1.253z" fill="#BF0830"/><path d="M487.582 118.1c.015.007.03.011.046.011a.107.107 0 00.046-.011.118.118 0 00.064-.155s-.915-2.155-2.745-1.583a.12.12 0 00-.022.22.12.12 0 00.091.009c1.61-.508 2.411 1.372 2.443 1.445a.098.098 0 00.031.042.099.099 0 00.046.022zm-4.268-2.423a.122.122 0 00.1 0 .119.119 0 00.056-.07.123.123 0 00-.01-.09c-.027-.055-.727-1.372-1.61-1.052a.12.12 0 00-.066.061.122.122 0 00-.007.09.118.118 0 00.151.073c.695-.242 1.317.915 1.326.938a.118.118 0 00.06.05zm9.34-2.37l-2.855 1.885s-6.404 0-8.27-3.692c-1.866-3.691-.494-4.574.842-5.516.658-.458 3.133-.993 5.127 1.024 1.094 1.103 2.745-.265 3.943 1.213 1.199 1.477 2.416 3.709 1.976 4.231-.439.521-.763.855-.763.855z" fill="#090028"/><path d="M492.971 112.163s2.585.869 2.338 3.586c-.247 2.717-1.697 3.623-2.004 4.337-.306.713-1.729 5.818-5.032 4.116l2.233-8.466 2.461-2.745.004-.828z" fill="#090028"/><path d="M487.957 118.626a2.124 2.124 0 002.828 2.719 2.124 2.124 0 00.887-3.161 2.125 2.125 0 00-3.27-.255 2.133 2.133 0 00-.445.697z" fill="#BF0830"/><path d="M489.605 120.667c.18.065.377.069.56.013a.89.89 0 00.455-.328.828.828 0 00.041-1.025.998.998 0 00-1.052-.366.978.978 0 01.59-.334c.33-.017.655.085.915.288a.063.063 0 00.04.007.062.062 0 00.035-.022.053.053 0 00.013-.038.054.054 0 00-.015-.038 1.43 1.43 0 00-.988-.311 1.141 1.141 0 00-.786.521l-.124.174.197-.087a.919.919 0 011.098.279.725.725 0 01-.042.883.753.753 0 01-.878.274c-.007-.002-.014-.004-.022-.004a.05.05 0 00-.021.005.046.046 0 00-.018.013.041.041 0 00-.012.019.043.043 0 00-.006.022.05.05 0 00.004.024.064.064 0 00.013.019c.006.006.013.01.021.012h-.018zm-2.649 2.521s-1.876 4.35-7.548 2.621l1.331-2.471s3.294 2.114 6.217-.15z" fill="#AE253D"/><path d="M479.801 118.128s-2.781 4.995.654 6.555c4.908 2.228 6.514-.458 7.726-2.671l1.94-4.817.384-1.468c-.51.264-.924.684-1.18 1.198-.554 1.116-2.031 4.117-2.374 4.167-.494.037-6.171-3.17-7.15-2.964z" fill="#090028"/><path d="M483.159 119.446c.011.006.023.01.035.01a.067.067 0 00.034-.01.06.06 0 00.014-.067.056.056 0 00-.014-.02l-.956-.791 1.372-2.457a.058.058 0 00-.023-.077.053.053 0 00-.022-.008.05.05 0 00-.024.002.067.067 0 00-.021.01.065.065 0 00-.015.018l-1.404 2.539 1.034.856-.01-.005z" fill="#AE253D"/><path d="M483.593 120.85c-.027 0-2.149-.914-2.149-.914s-.078.988.709 1.322c.786.333 1.44-.408 1.44-.408z" fill="#FBFDFC"/><path d="M451.834 78.392s6.065 27.756 5.85 27.473c-.215-.284 11.015 19.857 12.776 20.694 1.761.837 25.703 2.287 25.703 2.287l16.952-16.01 11.006-26.297c2.854.073 11.078 3.998 11.078 3.998l-11.014 34.777a9.641 9.641 0 01-2.265 3.792c-4.514 4.648-17.203 17.817-18.228 19.917-1.244 2.557-2.982 56.72-2.982 56.72-40.597-.174-49.48-9.935-49.48-9.935s4.853-53.18 4.954-55.929c0 0-6.546-11.761-8.691-16.312a63.142 63.142 0 01-2.589-5.777c-1.002-2.685-4.853-38.492-4.853-38.492 3.362-1.194 11.783-.906 11.783-.906z" fill="#FCE6CF"/><path d="M468.338 201.705c2.621-32.866 13.672-73.06 13.782-73.462l-.695-.183c-.11.402-11.18 40.66-13.81 73.599l.723.046z" fill="#F7546C" opacity=".5"/><path d="M482.34 128.091a17.639 17.639 0 01-2.287 2.374c-12.867 12.158-36.507-1.77-31.178 20.328 1.679-3.129 1.862-7.923 5.37-10.032a4.587 4.587 0 011.606-.585c9.203-1.514 22.189.714 26.489-12.085z" fill="#090028"/><path d="M482.518 130.002l-1.39.773-1.011-.361-.398-1.967 1.509-1.002 1.473.444-.183 2.113z" fill="#090028"/><path d="M482.02 127.057l-2.562-1.34-1.239 1.825 1.518 2.228 2.036-1.629.746 2.324 6.184-2.113-.329-1.771-6.354.476z" fill="#F7546C"/><path d="M500.716 203.556s-35.469.631-49.31-9.853l-.197 2.287s5.151 5.338 21.334 7.982c16.184 2.644 28.173 1.757 28.173 1.757v-2.173z" fill="#090028"/><path d="M472.024 201.209l-.658 2.576a.458.458 0 01-.545.334l-6.545-1.459a.463.463 0 01-.358-.391.451.451 0 01.015-.186l.754-2.543a.466.466 0 01.208-.265.463.463 0 01.332-.051l6.45 1.423a.467.467 0 01.294.207.458.458 0 01.053.355z" fill="#BF0830"/><path d="M590.324 328.094H423.689a9.308 9.308 0 00-9.308 9.308v362.993a9.308 9.308 0 009.308 9.309h166.635a9.31 9.31 0 009.309-9.309V337.402a9.308 9.308 0 00-9.309-9.308z" fill="#A22641"/><path d="M545.305 328.094H378.67a9.308 9.308 0 00-9.309 9.308v362.993a9.31 9.31 0 009.309 9.309h166.635a9.308 9.308 0 009.308-9.309V337.402a9.308 9.308 0 00-9.308-9.308z" fill="#C43F5C"/><path d="M387.479 443.378v256.459c0 5.443-3.009 9.858-6.715 9.858H260.563c-3.71 0-6.715-4.415-6.715-9.858V443.378c0-5.443 3.005-9.857 6.715-9.857h120.201c3.687 0 6.715 4.414 6.715 9.857z" fill="#0B1249"/><path d="M355.003 443.378v256.459c0 5.443-3.005 9.858-6.715 9.858H228.086c-3.705 0-6.715-4.415-6.715-9.858V443.378c0-5.443 3.01-9.857 6.715-9.857h120.202c3.71 0 6.715 4.414 6.715 9.857z" fill="#1A2578"/><path d="M183.173 433.953a21.795 21.795 0 006.795-1.887l4.323 3.835 3.116-2.431 3.115-2.431-2.681-5.126a21.737 21.737 0 003.475-6.131l5.771-.343.482-3.923.483-3.922-5.514-1.734a21.76 21.76 0 00-1.88-6.797l3.835-4.322-2.431-3.115-2.421-3.115-5.124 2.681a21.712 21.712 0 00-6.136-3.474l-.345-5.77-3.921-.483-3.928-.483-1.734 5.513a21.773 21.773 0 00-6.794 1.873l-4.323-3.835-3.117 2.431-3.116 2.431 2.68 5.126a21.695 21.695 0 00-3.473 6.136l-5.771.343-.482 3.923-.495 3.922 5.515 1.735a21.737 21.737 0 001.881 6.796l-3.832 4.323 2.432 3.115 2.431 3.114 5.125-2.672a21.717 21.717 0 006.136 3.48l.336 5.771 3.922.482 3.923.483 1.742-5.519zm-16.221-16.465a14.831 14.831 0 013.688-16.057 14.824 14.824 0 0122.736 2.923 14.822 14.822 0 01-.492 16.468 14.839 14.839 0 01-6.815 5.259 14.832 14.832 0 01-19.117-8.593zm555.535 11.239c2.099.475 4.262.605 6.404.384l2.589 4.574 3.398-1.175 3.399-1.171-.787-5.201a19.739 19.739 0 004.799-4.254l5.068 1.404 1.573-3.229 1.574-3.234-4.231-3.12c.475-2.099.605-4.262.384-6.404l4.574-2.589-1.175-3.398-1.171-3.399-5.201.787a19.818 19.818 0 00-4.254-4.803l1.404-5.069-3.229-1.573-3.234-1.574-3.12 4.236a19.807 19.807 0 00-6.404-.389l-2.589-4.574-3.399 1.176-3.398 1.175.787 5.197a19.734 19.734 0 00-4.803 4.258l-5.069-1.409-1.573 3.234-1.574 3.234 4.236 3.12a19.807 19.807 0 00-.389 6.404l-4.574 2.589 1.175 3.399 1.176 3.398 5.196-.787a19.74 19.74 0 004.259 4.799l-1.427 5.068 3.234 1.574 3.234 1.573 3.138-4.231zm-9.098-18.965a13.49 13.49 0 1113.919 13.046 13.48 13.48 0 01-9.675-3.632 13.507 13.507 0 01-3.069-4.282 13.507 13.507 0 01-1.194-5.132h.019zm-455.858-85.299a32.709 32.709 0 009.894 3.883l1.743 8.536 5.947-.11 5.946-.114 1.418-8.6a32.74 32.74 0 009.739-4.254l7.268 4.808 4.117-4.291 4.117-4.291-5.078-7.081a32.885 32.885 0 003.884-9.898l8.535-1.739-.114-5.946-.11-5.947-8.599-1.413a32.7 32.7 0 00-4.254-9.743l4.807-7.269-4.291-4.116-4.295-4.117-7.081 5.082a32.701 32.701 0 00-9.894-3.884l-1.692-8.595-5.947.115-5.946.114-1.418 8.595a32.827 32.827 0 00-9.739 4.254l-7.268-4.803-4.117 4.291-4.117 4.29 5.078 7.081a32.765 32.765 0 00-3.879 9.899l-8.54 1.738.114 5.947.114 5.946 8.595 1.418a32.802 32.802 0 004.254 9.743l-4.807 7.269 4.295 4.117 4.291 4.116 7.03-5.031zm-4.652-34.54a22.35 22.35 0 1115.274 27.674 22.352 22.352 0 01-15.274-27.674z" fill="#D95F76"/><path d="M557.816 215.948c10.809-.124 36.136 0 57.932 3.023 9.025 1.263 17.35-6.047 17.753-15.721.169-3.957-.878-8.627-4.012-14.011-12.053-20.731-36.415-2.699-36.836 7.501 0 0-3.714-15.552-18.1-13.59-14.386 1.963-10.791 24.55-10.791 24.55s-4.524-1.258-7.849.892c-3.326 2.15-1.908 7.401 1.903 7.356zm-315.458-31.054c10.8-.421 36.104-1.016 57.992 1.427 9.057 1.011 17.176-6.523 17.318-16.202.055-3.961-1.121-8.6-4.396-13.897-12.62-20.392-36.479-1.697-36.621 8.513 0 0-4.117-15.47-18.466-13.087-14.35 2.383-10.064 24.834-10.064 24.834s-4.574-1.13-7.822 1.107c-3.247 2.236-1.733 7.451 2.059 7.305zm103.24 87.133c12.291-.974 42.275-2.918 60.38-.412a2.87 2.87 0 002.92-1.463 2.867 2.867 0 00-.335-3.248c-1.249-1.437-3.458-2.635-7.319-2.745 0 0 3.408-16.81-12.835-18.233-16.696-1.482-16.765 16.157-16.765 16.157s-9.839-9.149-14.455 2.342c0 0-10.342-4.401-14.953 1.239a3.913 3.913 0 00-.428 4.296 3.912 3.912 0 003.79 2.067z" fill="#fff"/><path d="M710.831 500.068V699.45c0 5.663-2.946 10.255-6.577 10.255H586.49c-3.632 0-6.578-4.574-6.578-10.255V500.068c0-5.663 2.946-10.256 6.578-10.256h117.764c3.631 0 6.577 4.593 6.577 10.256z" fill="#1A2578"/><path d="M679.031 500.068V699.45c0 5.663-2.941 10.255-6.577 10.255H554.671c-3.631 0-6.577-4.574-6.577-10.255V500.068c0-5.663 2.946-10.256 6.577-10.256h117.764c3.637 0 6.596 4.593 6.596 10.256z" fill="#2836A5"/><path d="M294.397 571.158v70.992c0 5.444-3.119 9.858-6.971 9.858H162.627c-3.851 0-6.971-4.414-6.971-9.858v-70.992c0-5.443 3.12-9.857 6.971-9.857h124.799c3.852 0 6.971 4.414 6.971 9.857z" fill="#A22641"/><path d="M260.683 570.858v70.992c0 5.443-3.12 9.857-6.972 9.857H128.913c-3.852 0-6.972-4.414-6.972-9.857v-70.992c0-5.444 3.12-9.858 6.972-9.858h124.798c3.852 0 6.972 4.414 6.972 9.858z" fill="#C43F5C"/><path d="M311.069 358.237s1.34 10.9-.224 11.385c-1.564.485 4.08 12.305 6.825 5.192.965-2.484-2.415-16.467-6.642-18.599-4.227-2.132.041 2.022.041 2.022z" fill="#090028"/><path d="M311.013 355.432s3.843 9.688 2.951 11.787a2.858 2.858 0 01-1.972 1.524l1.523 5.868-7.287.869-4.212-16.714s1.033-4.629 1.079-4.46c.046.17 7.918 1.126 7.918 1.126z" fill="#FF6160"/><path d="M310.839 364.315a.062.062 0 01-.035-.008.05.05 0 01-.02-.029v-.087c.27-.16.325-.714.338-.915a1.923 1.923 0 01-1.056-1.02 2.806 2.806 0 01-.156-1.605c0-.032.037-.046.06-.032a.079.079 0 01.032.086 2.738 2.738 0 00.146 1.501 1.827 1.827 0 001.029.965h.046v.059c0 .032 0 .828-.389 1.043l.005.042zm1.657 6.427l-.503-1.999s-3.431.654-5.837-.133c0 0 3.5 1.999 6.34 2.132z" fill="#AE253D"/><path d="M305.359 362.101a.118.118 0 01-.096 0 .123.123 0 01-.039-.033.13.13 0 01-.024-.045.131.131 0 01-.004-.052.138.138 0 01.017-.048s1.231-2.109 3.033-1.281a.14.14 0 01.066.074.143.143 0 01-.002.1.127.127 0 01-.031.042.129.129 0 01-.045.027.13.13 0 01-.102-.005c-1.579-.728-2.644 1.098-2.69 1.175a.122.122 0 01-.083.046zm5.197-1.591a.146.146 0 01-.11 0 .136.136 0 01-.053-.085.13.13 0 01.021-.098c.037-.051.915-1.313 1.807-.874a.139.139 0 01.066.075.14.14 0 01.006.05.123.123 0 01-.013.049.12.12 0 01-.031.04.116.116 0 01-.043.025.126.126 0 01-.1-.006c-.677-.334-1.468.782-1.477.792a.15.15 0 01-.073.032z" fill="#090028"/><path d="M309.219 365.33c.041 0 2.593-.325 2.593-.325s-.219 1.089-1.166 1.207c-.947.119-1.427-.882-1.427-.882z" fill="#FBFDFC"/><path d="M307.984 356.356l-2.287-1.981s3.175 1.075 2.964 1.198a4.476 4.476 0 00-.677.783z" fill="#FF6160"/><path d="M302.573 356.448s1.372 3.627 10.521 2.255c0 0 .768-6.034-6.18-6.34-6.948-.307-6.358 4.826-6.235 4.748.124-.078 1.894-.663 1.894-.663z" fill="#090028"/><path d="M304.403 358.227a35.02 35.02 0 00-1.418 4.812s6.711 14.963.458 15.516l-1.08.243c-5.356 1.194-4.4-11.235-5.768-17.382-.851-3.852 2.886-8.856 6.473-7.237 3.586 1.619 1.335 4.048 1.335 4.048z" fill="#090028"/><path d="M304.97 364.59a2.057 2.057 0 01-3.049 2.272 2.063 2.063 0 01-.984-2.065 2.062 2.062 0 013.091-1.472 2.064 2.064 0 01.942 1.265z" fill="#FF6160"/><path d="M303.136 366.375a.862.862 0 01-.947-.43.817.817 0 01.082-1.002.972.972 0 011.043-.238.918.918 0 00-.508-.366 1.28 1.28 0 00-.914.165.068.068 0 01-.05.01.072.072 0 01-.042-.028.068.068 0 01-.01-.05.072.072 0 01.028-.042c.297-.186.654-.251.998-.183a1.11 1.11 0 01.7.604l.109.206-.201-.119a.91.91 0 00-1.08.132.698.698 0 00-.068.842.734.734 0 00.814.366c.015 0 .03.004.043.013a.068.068 0 01.025.037.06.06 0 01-.002.044.07.07 0 01-.029.034l.009.005z" fill="#AE253D"/><path d="M311.014 353.639s3.883 2.543 5.411 12.144l-4.35-8.796-1.061-3.348z" fill="#090028"/><path d="M324.228 496.667l-11.755-3.677 4.304-13.778 12.232 2.049-4.781 15.406zm-3.692-38.585l5.448-11.073-11.726-5.77-5.448 11.073 11.726 5.77z" fill="#FF6160"/><path d="M305.953 437.983c.27 0 10.242 4.414 10.242 4.414l3.202 2.077s-4.858 33.076-5.759 41.909c0 0 7.031 4.958 14.148 5.137 0 0 14.693-51.209 14.693-57.713 0-6.505-31.247-21.915-31.247-21.915l-14.217 8.206s-21.366 1.756-26.279 5.086c-4.912 3.33 38.14 22.835 38.14 22.835l-2.923-10.036z" fill="#FCE6CF"/><path d="M316.936 441.162s-24.12-14.381-32.408-16.623c-8.289-2.241-14.245-.347-15.146 2.287-.901 2.635-1.802 10.004 0 12.438 1.803 2.433 33.26 14.061 40.469 16.042 0-.019 6.417-7.475 7.085-14.144z" fill="#FCE6CF"/><path d="M269.566 426.635a.286.286 0 01-.101 0 .232.232 0 01-.114-.132.23.23 0 01.009-.175c.626-1.267 2.9-2.424 6.761-3.44a87.834 87.834 0 0110.786-1.953c.054 0 5.626-.681 5.946-.457a.227.227 0 01.064.315.241.241 0 01-.12.089.24.24 0 01-.15-.002c-1.143-.173-20.991 1.789-22.898 5.636a.245.245 0 01-.077.083.235.235 0 01-.106.036z" fill="#090028"/><path d="M314.531 448.317a.233.233 0 01-.223-.18.227.227 0 01.031-.172 16.423 16.423 0 002.388-7.008 220.283 220.283 0 00-33.461-17.766.23.23 0 01.019-.402.227.227 0 01.16-.014c19.774 8.457 33.51 17.784 33.648 17.88l.105.069v.128a16.542 16.542 0 01-2.47 7.355.233.233 0 01-.197.11z" fill="#090028"/><path d="M287.561 424.984a.25.25 0 01-.183-.087 10.432 10.432 0 00-2.503-2.072.23.23 0 01.229-.394c.988.584 1.878 1.32 2.635 2.182a.228.228 0 01.045.169.227.227 0 01-.086.152.228.228 0 01-.137.05zm49.617 32.683h-.055a.225.225 0 01-.141-.102.226.226 0 01-.028-.172c.05-.197 4.721-19.532 5.301-22.871.559-3.202-6.312-7.882-6.403-7.927a.221.221 0 01-.074-.062.225.225 0 01-.01-.27.232.232 0 01.256-.09.219.219 0 01.084.047c.292.196 7.181 4.894 6.573 8.38-.581 3.343-5.256 22.697-5.306 22.871a.23.23 0 01-.197.196zm-14.936-11.243a.225.225 0 01-.124-.037l-5.549-3.545a.251.251 0 01-.065-.061.231.231 0 01-.037-.172.231.231 0 01.263-.184.244.244 0 01.082.033l5.553 3.545a.23.23 0 01-.123.421z" fill="#090028"/><path d="M327.785 491.75h-.027c-.412-.055-10.123-1.405-14.277-5.192l-.086-.082v-.119l4.194-31.105 1.244-11.056a.214.214 0 01.025-.086.215.215 0 01.227-.115.227.227 0 01.201.251l-1.244 11.065-4.176 30.977c4.116 3.637 13.841 4.99 13.937 5.004.03.004.059.013.086.028a.234.234 0 01.067.058.21.21 0 01.039.081c.008.029.01.06.005.089a.224.224 0 01-.072.139.231.231 0 01-.143.063zm-54.944-52.061a.21.21 0 01-.132-.046c-2.599-1.912-2.58-3.563-2.576-3.632a.215.215 0 01.069-.16.215.215 0 01.165-.06.235.235 0 01.158.071.22.22 0 01.061.163c0 .023 0 1.5 2.392 3.252a.232.232 0 01.082.115.23.23 0 01-.219.297zm2.319-.43a.238.238 0 01-.105-.028c-2.85-1.509-3.069-3.147-3.079-3.202a.239.239 0 01.046-.167.217.217 0 01.067-.057.231.231 0 01.34.169c0 .028.234 1.487 2.841 2.869a.233.233 0 01.11.136.241.241 0 01-.014.175.222.222 0 01-.089.08.225.225 0 01-.117.025z" fill="#090028"/><path d="M313.812 392.714l-4.442-18.645h-12.094c-1.285 0-3.056.847-3.129.883-4.858 2.585-18.215 17.304-17.547 26.581.604 8.421 12.726 6.747 24.806 8.691l2.685-11.166-4.368-1.171 14.089-5.173z" fill="#D95F76"/><path d="M309.805 395.468v-21.399h12.099c1.285 0 3.055.847 3.128.883 4.858 2.585 19.884 17.771 19.212 27.048-.608 8.421-14.779 8.082-21.421 10.132l-3.691-13.353.324-.677-9.651-2.634z" fill="#D95F76"/><path d="M329.414 398.396l-.151 23.328s-21.128 3.861-39.937-1.143c-.458-.124.882-19.29.882-19.29s0-3.714 1.963-4.867c1.962-1.153 17.958-8.234 18.338-8.234.38 0 18.905 10.206 18.905 10.206z" fill="#D95F76"/><path d="M309.159 380.556a.229.229 0 100-.457c-6.943-.458-9.208-5.192-9.231-5.242a.234.234 0 00-.051-.073.228.228 0 00-.164-.059.215.215 0 00-.086.022.227.227 0 00-.12.127.23.23 0 00.005.175c.023.05 2.393 5.032 9.606 5.489l.041.018z" fill="#090028"/><path d="M316.813 374.069h-15.301s2.744 4.79 8.05 4.771c2.429-.009 5.023-.901 7.251-4.771z" fill="#FF6160"/><path d="M307.384 404.931c-.969-.983-.073-2.232-.073-2.232-.361-1.491.037-2.141.037-2.141s4.085 1.212 6.404 2.068c1.308-.197 1.77-.837 1.77-.837l.032.055c.027-1.13.059-2.553.059-2.708 0-.275.43-.705 1.107.151a36.932 36.932 0 011.981 3.156l3.38-1.985 2.745 9.509s-8.197 1.162-9.46 1.249c-1.262.087-5.653-.942-6.962-2.026-1.308-1.084-1.024-2.049-1.024-2.049a1.659 1.659 0 01.004-2.21z" fill="#F78C63"/><path d="M316.295 398.637v2.959a2.68 2.68 0 01-2.534 1.043l-1.267-.457.997-4.282 2.804.737zm-6.207 5.521c.033 0 .064-.01.09-.029a.15.15 0 00-.044-.268 18.57 18.57 0 01-2.744-1.295.159.159 0 00-.117-.015.154.154 0 00-.094.07.146.146 0 00-.018.057.17.17 0 00.005.059.161.161 0 00.027.052.14.14 0 00.046.038 17.85 17.85 0 002.804 1.322l.045.009zm.001 1.925a.148.148 0 00.098-.034.158.158 0 00.053-.089.157.157 0 00-.124-.179 9.393 9.393 0 01-2.653-.983.157.157 0 00-.116-.016.157.157 0 00-.094.071.153.153 0 00.054.206 9.429 9.429 0 002.745 1.02l.037.004zm-.339 2.196a.15.15 0 00.032-.297 8.097 8.097 0 01-2.315-.97.152.152 0 00-.114-.019.154.154 0 00-.096.065.152.152 0 00.046.21 8.221 8.221 0 002.415 1.011h.032z" fill="#AE253D"/><path d="M319.652 400.632l4.652-1.157s2.626 6.509 2.626 6.724c0 .215-1.313 5.946-1.477 5.946a18.88 18.88 0 01-1.656-1.569l-4.145-9.944z" fill="#4CB7D8"/><path d="M328.189 396.392l2.287-.365a.29.29 0 00.179-.114.292.292 0 00.05-.207.28.28 0 00-.321-.228l-1.934.311-4.323-6.651a.266.266 0 00-.28-.123.257.257 0 00-.1.04.289.289 0 00-.12.173.275.275 0 00.038.207l4.524 6.957zm-.842-16.239a.245.245 0 01-.188-.096c-1.72-2.475-3.202-2.479-3.202-2.479a.23.23 0 01-.228-.229.229.229 0 01.228-.229c.083 0 1.729.032 3.564 2.671a.229.229 0 01.003.253.222.222 0 01-.063.063.216.216 0 01-.114.046zm-.49 2.319a.23.23 0 01-.206-.123c-1.317-2.653-2.776-2.914-2.79-2.919a.227.227 0 01-.152-.089.234.234 0 01-.045-.171.234.234 0 01.09-.153.228.228 0 01.171-.044c.069 0 1.702.279 3.138 3.165a.239.239 0 01.023.087.234.234 0 01-.229.247z" fill="#090028"/><path d="M314.008 401.035a.15.15 0 01-.18-.198.15.15 0 01.07-.081 18.75 18.75 0 002.424-1.829.136.136 0 01.052-.03.148.148 0 01.116.007.151.151 0 01.077.088.148.148 0 01-.007.116.151.151 0 01-.036.047 18.405 18.405 0 01-2.47 1.871l-.046.009zm.384 1.884a.153.153 0 01-.174-.091.153.153 0 01.083-.197 9.379 9.379 0 002.396-1.514.166.166 0 01.051-.031.17.17 0 01.059-.009.17.17 0 01.058.014.165.165 0 01.047.035.149.149 0 01.04.11c0 .02-.005.039-.014.057a.13.13 0 01-.035.048 9.566 9.566 0 01-2.483 1.569l-.028.009zm.783 2.083a.154.154 0 01-.099-.015.153.153 0 01-.084-.13c0-.021.003-.041.01-.059a.191.191 0 01.032-.051.158.158 0 01.05-.034 8.149 8.149 0 002.067-1.427.14.14 0 01.049-.034.13.13 0 01.059-.013c.02 0 .04.004.058.013a.14.14 0 01.049.034.152.152 0 010 .215 8.393 8.393 0 01-2.159 1.482l-.032.019z" fill="#AE253D"/><path d="M294.393 396.239l-2.319.119a.28.28 0 01-.276-.372.27.27 0 01.143-.156.279.279 0 01.106-.025l1.962-.101 2.85-7.401a.28.28 0 01.517.201l-2.983 7.735z" fill="#090028"/><path d="M304.092 399.067l-2.393 11.436s-4.922-4.002-4.922-4.442c0-.439 1.56-5.768 1.725-5.868.165-.101 5.59-1.126 5.59-1.126z" fill="#4CB7D8"/><path d="M301.858 410.82h-.242a42.497 42.497 0 01-12.428-3.157.26.26 0 01-.089-.06.256.256 0 01-.059-.09.26.26 0 01-.02-.106.27.27 0 01.172-.253.252.252 0 01.105-.02c.037 0 .072.007.106.022a42.677 42.677 0 0012.002 3.092l2.05-10.8-9.345-3.202a.275.275 0 01-.17-.352.281.281 0 01.141-.158.278.278 0 01.212-.011l9.798 3.352-2.233 11.743zm19.013 0h.242a42.512 42.512 0 0012.429-3.157.28.28 0 00.148-.15.298.298 0 00.02-.106.272.272 0 00-.172-.253.26.26 0 00-.106-.02.254.254 0 00-.105.022 42.684 42.684 0 01-12.003 3.092l-2.05-10.8 9.346-3.202a.276.276 0 00.169-.352.276.276 0 00-.352-.169l-9.798 3.352 2.232 11.743z" fill="#090028"/><path d="M333.627 507.76l-23.328-11.207 2.241-4.661s2.772-1.423 4.803.961c0 0 2.603 4.574 7.625 2.959l6.761 7.827s2.662 2.534 1.898 4.121z" fill="#E2F2F1"/><path d="M333.001 509.409l-23.595-11.34a.402.402 0 01-.207-.233.397.397 0 01.017-.311l.721-1.5a.406.406 0 01.543-.191l23.595 11.34a1.011 1.011 0 01.473 1.349l-.198.413a1.014 1.014 0 01-1.349.473z" fill="#090028"/><path d="M289.656 423.182h42.137a2.512 2.512 0 002.512-2.512v-22.688a2.512 2.512 0 00-2.512-2.511h-42.137a2.512 2.512 0 00-2.512 2.511v22.688a2.512 2.512 0 002.512 2.512z" fill="#2A1968"/><path d="M308.359 406.99a1.885 1.885 0 113.77.002 1.885 1.885 0 01-3.77-.002z" fill="#fff"/><g filter="url(#filter0_d_404_14238)"><path d="M666.375 449.103l-3.783 1.633-4.209 1.994s-6.532 1.134-6.628 1.116l.545.97c-8.106 1.002-33.658 2.049-37.852 2.52-2.53.279-4.959 3.426-6.491 5.878l2.077 1.404s22.313-.983 22.267-.512c0 .146-.64 2.36-1.619 5.26 13.782.915 33.081.833 36.662-4.848 2.942-4.657.074-11.344-.969-15.415zm-86.078 99.553l16.957.228.242-15.849-16.888-2.091-.311 17.712z" fill="#fff"/><path d="M632.424 492.731s14.596.243 24.824-.109c3.285-.11 6.208.119 7.937-.266 7.122-1.582 8.874-23.809.791-37.426-8.083-13.618-36.374 28.196-36.374 28.196l2.822 9.605z" fill="#BF0830"/><path d="M606.012 549.255l16.952.234.247-15.855-16.888-2.09-.311 17.711z" fill="#fff"/><path d="M616.707 462.985s-35.853 2.287-36.887 6.432c-1.034 4.144-3.998 48.162-1.784 66.939 0 0 13.604.938 20.127-.64l1.587-45.788 10.736-1.235 24.6-29.573-18.379 3.865z" fill="#890421"/><path d="M633.254 462s-27.652 7.804-28.685 11.943c-1.034 4.14-3.98 43.424-1.761 62.21 0 0 14.637.837 21.132-.741l1.752-43.195 6.308.22 15.301-26.919L633.254 462z" fill="#BF0830"/><path d="M615.843 536.964c6.464 0 8.769-.97 8.879-1.02l.142-.064 1.697-43.455-2.672 1.258.211.457 1.93-.915-1.651 42.307c-.7.243-4.053 1.208-11.971.842v.499c1.244.068 2.393.091 3.435.091z" fill="#090028"/><path d="M621.903 527.597c.691-2.662.888-28.617.915-29.733h-.507c0 .27-.206 26.988-.883 29.6l.475.133zm-25.693-36.694c3.275-1.062 7.776-1.222 7.835-1.222v-.498c-.046 0-4.624.164-7.973 1.244l.138.476z" fill="#090028"/><path d="M588.833 536.871a44.302 44.302 0 009.372-.915l.188-.045 1.601-46.301-2.045 1.647.311.389 1.194-.961-1.551 44.828a45.4 45.4 0 01-9.555.86v.498h.485z" fill="#090028"/><path d="M595.78 528.562c.686-4.021.032-31.224 0-32.381h-.499c0 .283.682 28.314 0 32.289l.499.092zm47.627-35.365c6.367 0 14.002-.215 22.588-.864l-.037-.494c-25.575 1.926-42.728 0-42.897 0l-.055.494c.11.014 7.758.864 20.401.864z" fill="#090028"/><path d="M634.66 448.365c-.494 0-20.355 8.536-20.355 8.536l4.002 7.657 11.148-2.447 5.205-13.746zm28.768-35.596s8.444-.298 12.478 1.989c6.015 3.408 3.87 22.931 3.87 22.931s-5.109-2.79-5.42-3.719c-.311-.928-10.928-21.201-10.928-21.201z" fill="#2A1968"/><path d="M665.478 455.145h-.032l-6.211 1.422a.236.236 0 01-.178-.029.235.235 0 01.072-.428l6.217-1.423a.226.226 0 01.274.174.233.233 0 01-.142.284z" fill="#090028"/><path d="M668.726 451.457l-3.783 1.638-4.208 1.994s-6.532 1.134-6.628 1.112l.544.974c-8.105 1.002-33.657 2.049-37.852 2.516-2.529.283-4.958 3.426-6.49 5.882l2.076 1.404s22.313-.983 22.268-.516c0 .15-.645 2.364-1.62 5.265 13.778.914 33.077.832 36.663-4.849 2.932-4.671.073-11.358-.97-15.42z" fill="#F9B59D"/><path d="M671.602 414.293c-4.798-.664-17.464-1.121-17.464-1.121s-1.679.457-1.144.192c-13.983 2.47-15.529 12.84-15.529 12.84l-6.83 29.97-7.597.412c-2.457 4.661-.655 17.227-.655 17.227l36.8 4.148s7.955 1.309 14.684-7.318c4.446-5.709 5.946-23.233 5.946-36.036.014 0-.75-19.285-8.211-20.314z" fill="#2A1968"/><path d="M568.531 437.501h35.039l12.218 31.119h-35.034l-12.223-31.119z" fill="#FCE6CF"/><path d="M615.788 468.62h-1.825l-12.223-31.119h1.83l12.218 31.119z" fill="#F3CBC2"/><path d="M591.44 452.065c.485 1.432.128 2.846-.796 3.161-.924.316-2.068-.59-2.552-2.022-.485-1.431-.129-2.84.795-3.156.924-.315 2.068.59 2.553 2.017z" fill="#E2F2F1"/><path d="M627.37 466.096h-13.087v2.516h13.087a1.259 1.259 0 000-2.516z" fill="#F3CBC2"/><path d="M624.057 466.968h-8.27v.393h8.27v-.393z" fill="#E23E3D"/><path d="M659.235 456.695a.232.232 0 01-.138 0 .23.23 0 01-.145-.103.232.232 0 01-.024-.176c.037-.16 3.884-16.513 5.521-26.801a.235.235 0 01.092-.152.23.23 0 01.173-.04.233.233 0 01.193.266c-1.638 10.305-5.49 26.672-5.531 26.837a.23.23 0 01-.141.169zm-23.802-.268a.256.256 0 01-.155 0 .24.24 0 01-.151-.293c.059-.183 5.764-18.297 6.957-24.545a.236.236 0 01.27-.188.239.239 0 01.188.274c-1.199 6.285-6.912 24.418-6.971 24.601a.228.228 0 01-.138.151zm23.197-34.473l-.549.045a.19.19 0 01-.075-.007.204.204 0 01-.066-.037.196.196 0 01-.046-.061.179.179 0 01-.018-.073.191.191 0 01.178-.206c8-.562 9.487-6.404 9.501-6.481a.192.192 0 01.219-.156.188.188 0 01.16.215c-.009.064-1.486 5.951-9.304 6.761z" fill="#090028"/><path d="M633.8 452.104a.229.229 0 01-.283-.101l-1.56-2.671v-.091l5.26-23.077a13.931 13.931 0 012.745-5.865c2.136-2.781 6.349-6.317 14.29-7.373a.236.236 0 01.172.046.235.235 0 01-.023.387.232.232 0 01-.085.029c-7.776 1.033-11.893 4.473-13.97 7.172a13.776 13.776 0 00-2.694 5.681l-5.238 22.995 1.469 2.516a.242.242 0 01.023.178.234.234 0 01-.11.142l.004.032z" fill="#090028"/><path d="M625.571 452.191a.233.233 0 01-.315-.222.232.232 0 01.069-.163.215.215 0 01.077-.049l6.715-2.681a.236.236 0 01.177.006c.057.024.101.07.125.127a.236.236 0 01-.128.302l-6.715 2.676-.005.004z" fill="#090028"/><path d="M623.037 456.587s-2.429 5.731-.654 17.226l8.883-4.766-2.639-8.586-5.59-3.874z" fill="#2A1968"/><path d="M667.256 456.901a.31.31 0 01-.086 0c-.334 0-33.209-.998-43.968-.11-.265.704-1.477 4.355-1.139 11.033a.214.214 0 01-.013.09.217.217 0 01-.046.077.217.217 0 01-.073.054.235.235 0 01-.255-.039.238.238 0 01-.08-.159c-.384-7.566 1.162-11.216 1.231-11.367l.055-.128h.137c10.631-.915 43.83.087 44.164.096a.228.228 0 01.163.075.225.225 0 01.061.167.223.223 0 01-.151.211z" fill="#090028"/><path d="M652.226 395.74l-.261 10.113s-.22 3.248 2.612 3.728l-.641 4.323a3.378 3.378 0 002.223 3.705c.862.3 1.765.464 2.676.485 3.253.087 5.078-2.287 5.38-3.518.302-1.23-.362-7.058-.362-7.058l.174-2.863-.082-11.097-11.719 2.182z" fill="#fff"/><path d="M661.246 406.987s-.334 5.439-7.141 5.782l.458-3.202s4.4 1.011 6.683-2.58z" fill="#E8EBF8"/><path d="M659.938 401.249a.128.128 0 00.051-.009.131.131 0 00.045-.028.138.138 0 000-.192s-1.83-1.972-3.573-.645a.138.138 0 000 .192.133.133 0 00.188 0c1.541-1.176 3.138.54 3.202.613a.102.102 0 00.035.045c.015.012.033.02.052.024zm4.707-1.302l-2.941.531-.54.535s.38-4.894.956-5.846c.576-.951 2.525 4.78 2.525 4.78zm-10.269.344c.02 0 .04-.003.058-.011a.148.148 0 00.048-.035.138.138 0 000-.192c-.055-.046-1.318-1.185-2.155-.508a.142.142 0 00-.06.095.138.138 0 00.13.157.135.135 0 00.056-.01.137.137 0 00.048-.031c.654-.531 1.784.489 1.798.498.021.02.049.033.077.037z" fill="#090028"/><path d="M660.548 401.668a2.433 2.433 0 001.445 2.291 2.438 2.438 0 10-1.445-2.291z" fill="#fff"/><path d="M663.373 403.099a1.027 1.027 0 00.979-.737.954.954 0 00-.357-1.125 1.148 1.148 0 00-1.28 0c.091-.251.271-.46.507-.585.344-.147.73-.162 1.084-.042a.072.072 0 00.052-.002.07.07 0 00.035-.039.058.058 0 00.006-.026.077.077 0 00-.023-.048.07.07 0 00-.024-.013 1.673 1.673 0 00-1.194.046 1.355 1.355 0 00-.645.874l-.064.233.179-.165a1.06 1.06 0 011.294-.128.832.832 0 01.302.965.878.878 0 01-.846.645.068.068 0 00-.051.067.067.067 0 00.051.066l-.005.014zm-7.67 1.327a.076.076 0 00.041-.01.061.061 0 00.027-.032.07.07 0 00-.004-.051.076.076 0 00-.037-.036l-1.372-.484.512-3.202a.067.067 0 00-.066-.051.07.07 0 00-.042.014.062.062 0 00-.024.037l-.531 3.293 1.455.522h.041z" fill="#AE253D"/><path d="M656.7 405.775c-.041 0-2.68-.142-2.68-.142s.301 1.102 1.28 1.153c.979.05 1.4-1.011 1.4-1.011z" fill="#FBFDFC"/><path d="M664.645 399.948s.947-4.73-.457-6.536c-1.405-1.807-9.67-5.119-10.704-4.264-1.034.856-.05 1.963-.05 1.963s-3.326-1.162-4.158 1.788c-.833 2.951 6.335 4.401 10.671 3.124a9.61 9.61 0 014.698 3.925zm.947 77.323c-.502.19-1.013.354-1.533.489a12.735 12.735 0 01-4.912.43.235.235 0 01-.153-.095.23.23 0 01-.039-.175.235.235 0 01.094-.149.24.24 0 01.171-.043c1.595.164 3.207.021 4.748-.421 2.539-.677 6.285-2.41 9.711-6.806 4.304-5.521 5.878-22.51 5.915-35.382a.234.234 0 01.128-.257.243.243 0 01.2 0 .25.25 0 01.081.063.234.234 0 01.048.194c-.041 12.945-1.638 30.057-6.011 35.679-2.872 3.678-5.987 5.54-8.448 6.473z" fill="#090028"/><path d="M598.438 550.922l-14.395 2.685-7.017-5.274-9.496 8.33-2.287.43a1.707 1.707 0 00-1.422 1.624 1.652 1.652 0 00.59 1.3 1.676 1.676 0 001.381.365l33.479-6.24a.458.458 0 00.361-.526l-.407-2.182a.668.668 0 00-.527-.517.67.67 0 00-.26.005z" fill="#A22641"/><path d="M598.313 550.964l-1.102-5.91s-3.033-2.813-6.404-.457c0 0-4.844 5.004-10.662 1.125l-11.212 7.703s-3.142 1.743-3.714 3.71l33.094-6.171z" fill="#100E68"/><path d="M623.843 550.952l-14.547 1.706-6.655-5.731-10.031 7.689-2.324.27a1.719 1.719 0 00-1.533 1.528 1.685 1.685 0 00.505 1.336 1.676 1.676 0 001.353.457l33.822-3.971a.459.459 0 00.398-.503l-.261-2.205a.665.665 0 00-.244-.439.65.65 0 00-.483-.137z" fill="#D95F76"/><path d="M623.714 550.984l-.699-5.974s-2.836-3.009-6.368-.887c0 0-5.173 4.666-10.713.407l-11.71 6.926s-3.252 1.527-3.956 3.453l33.446-3.925z" fill="#1F1587"/></g><path d="M225.275 527.523l3.371 1.455 3.746 1.779s5.823 1.011 5.906.988l-.485.87c7.223.892 29.984 1.829 33.721 2.241 2.251.252 4.419 3.051 5.782 5.237l-1.83 1.254s-19.879-.878-19.838-.458c0 .133.572 2.109 1.445 4.689-12.277.819-29.472.741-32.664-4.318-2.635-4.131-.083-10.105.846-13.737zm77.218 89.225l-15.104.206-.215-14.121 15.044-1.861.275 15.776z" fill="#fff"/><path d="M255.519 566.403s-13 .215-22.116-.096c-2.923-.101-5.526.105-7.067-.238-6.345-1.409-7.909-21.206-.705-33.337 7.205-12.131 32.404 25.113 32.404 25.113l-2.516 8.558z" fill="#0B1249"/><path d="M279.05 616.748l-15.104.206-.216-14.121 15.045-1.861.275 15.776z" fill="#fff"/><path d="M269.522 539.899s31.937 2.041 32.861 5.727c.924 3.687 3.563 42.902 1.587 59.63 0 0-12.117.833-17.913-.572l-1.413-40.788-9.565-1.098-21.915-26.343 16.358 3.444z" fill="#2836A5"/><path d="M254.175 539.297s24.632 6.948 25.551 10.64c.92 3.691 3.55 38.679 1.574 55.407 0 0-13.032.746-18.828-.658l-1.56-38.479-5.621.197-13.627-23.978 12.511-3.129z" fill="#0B1249"/><path d="M287.781 564.766c-2.918-.942-6.939-1.084-6.98-1.089v-.457c.041 0 4.117.146 7.104 1.111l-.124.435z" fill="#090028"/><path d="M294.356 605.715a39.654 39.654 0 01-8.353-.814l-.164-.037-1.423-41.246 1.83 1.468-.279.344-1.066-.856 1.372 39.933a40.67 40.67 0 008.513.764v.458l-.43-.014z" fill="#090028"/><path d="M288.161 598.313c-.613-3.582-.032-27.816 0-28.845h.457c0 .251-.608 25.222 0 28.758l-.457.087z" fill="#090028"/><path d="M253.535 526.877c.458 0 18.132 7.602 18.132 7.602l-3.563 6.821-9.931-2.178-4.638-12.245zm-25.639-31.707s-7.525-.266-11.116 1.77c-5.361 3.037-3.449 20.424-3.449 20.424s4.552-2.484 4.831-3.312c.279-.828 9.734-18.882 9.734-18.882z" fill="#C43F5C"/><path d="M226.066 532.916h.027l5.535 1.262a.202.202 0 00.157-.025.182.182 0 00.058-.056.188.188 0 00.032-.074.201.201 0 00.002-.081.2.2 0 00-.157-.166l-5.535-1.267a.209.209 0 00-.229.148.213.213 0 00.11.25v.009z" fill="#090028"/><path d="M223.184 529.621l3.367 1.459 3.751 1.775s5.818 1.011 5.9.993l-.48.864c7.218.915 29.98 1.83 33.717 2.246 2.255.252 4.418 3.051 5.782 5.238l-1.83 1.248s-19.88-.873-19.839-.457c0 .133.577 2.104 1.446 4.689-12.277.818-29.472.741-32.66-4.318-2.639-4.149-.087-10.11.846-13.737z" fill="#F9B59D"/><path d="M220.618 496.523c4.277-.591 15.552-.998 15.552-.998s1.496.389 1.02.17c12.46 2.2 13.837 11.435 13.837 11.435l6.079 26.695 6.77.366c2.191 4.154.581 15.347.581 15.347l-32.779 3.696s-7.085 1.166-13.082-6.518c-3.961-5.087-5.311-20.694-5.311-32.102.005.004.686-17.167 7.333-18.091z" fill="#C43F5C"/><path d="M312.437 517.199h-31.211l-10.886 27.72h31.21l10.887-27.72z" fill="#090028"/><path d="M270.34 544.919h1.628l10.887-27.72h-1.629l-10.886 27.72z" fill="#030014"/><path d="M292.032 530.176c-.43 1.271-.114 2.529.709 2.813.823.283 1.83-.526 2.287-1.803.458-1.276.119-2.529-.704-2.813-.824-.283-1.858.522-2.292 1.803z" fill="#E2F2F1"/><path d="M260.02 542.678h11.66v2.241h-11.66a1.12 1.12 0 010-2.241z" fill="#030014"/><path d="M262.975 543.804h7.365v-.352h-7.365v.352z" fill="#090028"/><path d="M231.637 534.293a.201.201 0 00.119 0 .207.207 0 00.13-.091.207.207 0 00.026-.156c-.037-.146-3.463-14.711-4.917-23.877a.213.213 0 00-.238-.17.21.21 0 00-.171.157.184.184 0 00-.003.081c1.464 9.176 4.89 23.754 4.926 23.901.005.035.02.068.042.096a.196.196 0 00.086.059z" fill="#916D47"/><path d="M252.839 534.055a.229.229 0 00.137 0 .2.2 0 00.07-.039.205.205 0 00.062-.222c-.05-.16-5.132-16.289-6.193-21.865a.211.211 0 00-.087-.133.201.201 0 00-.155-.031.209.209 0 00-.134.086.206.206 0 00-.031.156c1.066 5.599 6.157 21.751 6.207 21.911.009.03.025.059.046.083a.214.214 0 00.078.054zm-20.661-30.707c.16 0 .32.032.489.041a.172.172 0 00.183-.155.176.176 0 00-.042-.126.18.18 0 00-.118-.062c-7.131-.498-8.453-5.717-8.462-5.768a.163.163 0 00-.025-.063.166.166 0 00-.046-.049.173.173 0 00-.241.037.166.166 0 00-.031.126c.009.054 1.326 5.301 8.293 6.019z" fill="#090028"/><path d="M254.293 530.207a.21.21 0 00.252-.091l1.372-2.383v-.078l-4.693-20.557c-.4-1.911-1.244-3.7-2.466-5.224-1.902-2.479-5.658-5.626-12.73-6.568a.202.202 0 00-.207.101.196.196 0 00-.026.077.206.206 0 00.101.208c.024.013.05.022.077.025 6.921.915 10.585 3.985 12.442 6.404a12.275 12.275 0 012.402 5.06l4.666 20.487-1.309 2.237a.215.215 0 00-.021.157.216.216 0 00.094.127l.046.018z" fill="#090028"/><path d="M261.627 530.268a.208.208 0 00.157-.005.202.202 0 00.108-.114.206.206 0 00-.114-.266l-5.979-2.36a.21.21 0 00-.27.114.222.222 0 00-.015.08.206.206 0 00.13.19l5.983 2.388v-.027z" fill="#090028"/><path d="M263.881 534.196s2.163 5.11.581 15.347l-7.909-4.245 2.351-7.648 4.977-3.454z" fill="#C43F5C"/><path d="M224.489 534.481a.144.144 0 00.077 0c.298 0 29.587-.888 39.17-.096.237.631 1.317 3.878 1.015 9.825a.212.212 0 00.197.22.193.193 0 00.079-.013.2.2 0 00.117-.106.213.213 0 00.019-.078c.343-6.738-1.034-9.99-1.089-10.127l-.05-.11h-.124c-9.473-.81-39.045.077-39.338.087a.206.206 0 00-.124.056.208.208 0 00-.041.254.21.21 0 00.101.092l-.009-.004z" fill="#916D47"/><path d="M237.875 479.996l.233 9.012s.197 2.891-2.328 3.321l.577 3.851a3.024 3.024 0 01-1.981 3.298c-.766.276-1.57.43-2.383.457-2.896.074-4.52-2.058-4.79-3.137-.269-1.08.321-6.285.321-6.285l-.156-2.548.073-9.89 10.434 1.921z" fill="#fff"/><path d="M229.844 490.014s.297 4.844 6.363 5.15l-.426-2.84s-3.906.892-5.937-2.31z" fill="#D9D9D9"/><path d="M231.01 484.904a.12.12 0 01-.111-.07.123.123 0 01-.011-.068.122.122 0 01.026-.063s1.633-1.761 3.202-.576a.128.128 0 010 .169.125.125 0 01-.169 0c-1.372-1.048-2.799.457-2.859.544a.115.115 0 01-.031.042.12.12 0 01-.047.022zm-4.194-1.156l2.621.457.481.458s-.339-4.359-.851-5.206c-.512-.846-2.251 4.291-2.251 4.291zm9.147.32a.133.133 0 01-.049-.009.12.12 0 01-.076-.115c0-.032.012-.063.034-.087.05-.041 1.175-1.057 1.921-.457a.123.123 0 01-.085.209.117.117 0 01-.084-.035c-.581-.458-1.592.434-1.601.457a.108.108 0 01-.06.037z" fill="#090028"/><path d="M233.462 485.33a.366.366 0 11-.732.011.366.366 0 01.732-.011zm3.839-.463a.36.36 0 11-.721.018.36.36 0 01.721-.018z" fill="#1A2578"/><path d="M230.466 485.279a2.18 2.18 0 01-1.287 2.043 2.171 2.171 0 01-2.913-2.763 2.168 2.168 0 011.972-1.393 2.17 2.17 0 012.228 2.113z" fill="#fff"/><path d="M227.945 486.552a.913.913 0 01-.869-.654.851.851 0 01.32-1.002 1.016 1.016 0 011.139 0 .97.97 0 00-.457-.521 1.372 1.372 0 00-.99-.034.054.054 0 01-.025-.003.052.052 0 01-.022-.014.06.06 0 01-.018-.046.073.073 0 01.008-.025.052.052 0 01.017-.019 1.464 1.464 0 011.085.031 1.175 1.175 0 01.576.777l.055.211-.156-.151a.947.947 0 00-1.152-.114.742.742 0 00-.27.864.785.785 0 00.755.572.047.047 0 01.023.003.056.056 0 01.034.029.062.062 0 01.007.023.099.099 0 01-.003.024.057.057 0 01-.013.021.056.056 0 01-.02.014.064.064 0 01-.024.005v.009zm6.857 1.174a.056.056 0 01-.036-.01.06.06 0 01-.023-.031.057.057 0 01.004-.044.057.057 0 01.032-.029l1.199-.457-.458-2.836a.065.065 0 01.001-.024.051.051 0 01.01-.021.055.055 0 01.018-.016.053.053 0 01.022-.008.065.065 0 01.073.05l.457 2.937-1.294.457-.005.032z" fill="#AE253D"/><path d="M233.896 488.935l2.388-.123s-.27.983-1.143 1.029c-.874.045-1.245-.906-1.245-.906z" fill="#A9A9A9"/><path d="M226.816 483.747s-.842-4.213.411-5.823c1.254-1.61 8.614-4.574 9.538-3.796.924.777.045 1.747.045 1.747s2.96-1.038 3.701 1.592c.741 2.63-5.645 3.92-9.505 2.781a8.557 8.557 0 00-4.19 3.499z" fill="#090028"/><path d="M317.715 620.546h-30.442v-6.207s2.214-2.983 5.586-1.46c0 0 5.1 3.619 9.605-.759l11.162 4.949s4.089 1.368 4.089 3.477z" fill="#C43F5C"/><path d="M317.825 622.723H287.05a.491.491 0 01-.49-.49v-1.994a.492.492 0 01.49-.49h30.775a1.212 1.212 0 011.212 1.213v.571a1.212 1.212 0 01-1.212 1.19z" fill="#0B1249"/><path d="M293.965 620.546h-30.442v-6.207s2.214-2.983 5.586-1.46c0 0 5.1 3.619 9.605-.759l11.166 4.949s4.085 1.368 4.085 3.477z" fill="#C43F5C"/><path d="M294.067 622.723h-30.775a.489.489 0 01-.49-.49v-1.994a.489.489 0 01.49-.49h30.775a1.212 1.212 0 011.212 1.213v.571a1.212 1.212 0 01-1.212 1.19z" fill="#1A2578"/><path opacity=".2" d="M631.64 121.213c8.086 0 14.641-6.763 14.641-15.106 0-8.344-6.555-15.107-14.641-15.107-8.085 0-14.64 6.763-14.64 15.107 0 8.343 6.555 15.106 14.64 15.106z" stroke="#BF0830" stroke-width="10"/><path opacity=".3" d="M235.5 228.478c4.142 0 7.5-3.465 7.5-7.739S239.642 213 235.5 213c-4.142 0-7.5 3.465-7.5 7.739s3.358 7.739 7.5 7.739z" stroke="#6258C4" stroke-width="5"/><path opacity=".3" d="M700.5 327.478c4.142 0 7.5-3.465 7.5-7.739S704.642 312 700.5 312c-4.142 0-7.5 3.465-7.5 7.739s3.358 7.739 7.5 7.739z" stroke="#74BBFB" stroke-width="5"/><g opacity=".84" filter="url(#filter1_b_404_14238)"><path d="M336.967 529.213a3 3 0 01-2.744 1.787h-34.616c-2.169 0-3.621-2.23-2.744-4.213l10.172-23a3 3 0 012.743-1.787h34.615c2.169 0 3.621 2.23 2.744 4.213l-10.17 23z" fill="#fff" fill-opacity=".46"/></g><g opacity=".84" filter="url(#filter2_b_404_14238)"><path d="M337.967 530.213a3 3 0 01-2.744 1.787h-34.616c-2.169 0-3.621-2.23-2.744-4.213l10.172-23a3 3 0 012.743-1.787h34.615c2.169 0 3.621 2.23 2.744 4.213l-10.17 23z" fill="#fff" fill-opacity=".27"/></g><path d="M319.67 511.313l-6.211-.082 2.76 8.838 6.209.082-2.758-8.838z" fill="#0056A7"/><path d="M316.18 519.814l.095.249 6.209.08-2.03-6.207-4.274 5.878z" fill="#2E3191"/><path d="M332.831 504.061l-16.554 16.002 6.209.082 16.556-16.003-6.211-.081zm-17.358 18.414l6.032.078-1.687 5.072-6.033-.08 1.688-5.07z" fill="#0056A7"/><g filter="url(#filter3_bd_404_14238)"><path d="M477.936 458.416c1.754 4 5.708 6.584 10.075 6.584h104.914c2.885 0 4.822-2.963 3.663-5.606l-33.31-76a4.002 4.002 0 00-3.664-2.394H450.121c-2.886 0-4.822 2.963-3.664 5.606l31.479 71.81z" fill="#E2738B" fill-opacity=".61" shape-rendering="crispEdges"/></g><g filter="url(#filter4_b_404_14238)"><path d="M474.936 461.416c1.754 4 5.708 6.584 10.075 6.584h104.914c2.885 0 4.822-2.963 3.663-5.606l-33.31-76a4.002 4.002 0 00-3.664-2.394H447.121c-2.886 0-4.822 2.963-3.664 5.606l31.479 71.81z" fill="#E2738B" fill-opacity=".61"/></g><path d="M541.564 438.475c.424.958.108 1.756-.702 1.772l-10.309.212c-.801 0-1.827-.753-2.252-1.711l-5.411-12.16c-.425-.958-.108-1.756.705-1.776l10.305-.208c.802 0 1.828.753 2.253 1.711l5.411 12.16z" fill="#07BFDD"/><path d="M548.166 422.872c.425.958.108 1.755-.702 1.771l-10.308.213c-.802 0-1.828-.754-2.253-1.716l-5.407-12.156c-.429-.958-.112-1.76.702-1.776l10.304-.208c.802 0 1.828.753 2.253 1.711l5.411 12.161z" fill="#007FFF"/><path d="M515.083 439.016c.429.958.112 1.76-.701 1.776l-10.305.208c-.802 0-1.828-.753-2.253-1.711l-5.411-12.16c-.424-.958-.108-1.756.702-1.772l10.309-.212c.801 0 1.823.753 2.252 1.711l5.407 12.16z" fill="#1DA5F8"/><path d="M494.858 423.963c.429.958.113 1.759-.701 1.775l-10.305.213c-.801 0-1.827-.754-2.252-1.716l-5.411-12.16c-.425-.958-.108-1.756.701-1.772l10.305-.212c.802 0 1.832.757 2.257 1.715l5.406 12.157z" fill="#8CC936"/><path d="M468 49.326C440.066 37.23 432.5 13.57 432.5 0c-2.082 30.5-22 44.5-34.5 50.5 27 6.674 32.366 35.268 35.082 50C436 67.5 456 50.5 468 49.326z" fill="#F1C21C"/><defs><filter id="filter0_d_404_14238" x="552.82" y="384.01" width="134.327" height="189.4" filterUnits="userSpaceOnUse" color-interpolation-filters="sRGB"><feFlood flood-opacity="0" result="BackgroundImageFix"/><feColorMatrix in="SourceAlpha" values="0 0 0 0 0 0 0 0 0 0 0 0 0 0 0 0 0 0 127 0" result="hardAlpha"/><feOffset dx="-2" dy="4"/><feGaussianBlur stdDeviation="4.5"/><feComposite in2="hardAlpha" operator="out"/><feColorMatrix values="0 0 0 0 0 0 0 0 0 0 0 0 0 0 0 0 0 0 0.25 0"/><feBlend in2="BackgroundImageFix" result="effect1_dropShadow_404_14238"/><feBlend in="SourceGraphic" in2="effect1_dropShadow_404_14238" result="shape"/></filter><filter id="filter1_b_404_14238" x="292.604" y="498" width="58.793" height="37" filterUnits="userSpaceOnUse" color-interpolation-filters="sRGB"><feFlood flood-opacity="0" result="BackgroundImageFix"/><feGaussianBlur in="BackgroundImage" stdDeviation="2"/><feComposite in2="SourceAlpha" operator="in" result="effect1_backgroundBlur_404_14238"/><feBlend in="SourceGraphic" in2="effect1_backgroundBlur_404_14238" result="shape"/></filter><filter id="filter2_b_404_14238" x="293.604" y="499" width="58.793" height="37" filterUnits="userSpaceOnUse" color-interpolation-filters="sRGB"><feFlood flood-opacity="0" result="BackgroundImageFix"/><feGaussianBlur in="BackgroundImage" stdDeviation="2"/><feComposite in2="SourceAlpha" operator="in" result="effect1_backgroundBlur_404_14238"/><feBlend in="SourceGraphic" in2="effect1_backgroundBlur_404_14238" result="shape"/></filter><filter id="filter3_bd_404_14238" x="442.116" y="379" width="158.812" height="94" filterUnits="userSpaceOnUse" color-interpolation-filters="sRGB"><feFlood flood-opacity="0" result="BackgroundImageFix"/><feGaussianBlur in="BackgroundImage" stdDeviation="1"/><feComposite in2="SourceAlpha" operator="in" result="effect1_backgroundBlur_404_14238"/><feColorMatrix in="SourceAlpha" values="0 0 0 0 0 0 0 0 0 0 0 0 0 0 0 0 0 0 127 0" result="hardAlpha"/><feOffset dy="4"/><feGaussianBlur stdDeviation="2"/><feComposite in2="hardAlpha" operator="out"/><feColorMatrix values="0 0 0 0 0 0 0 0 0 0 0 0 0 0 0 0 0 0 0.25 0"/><feBlend in2="effect1_backgroundBlur_404_14238" result="effect2_dropShadow_404_14238"/><feBlend in="SourceGraphic" in2="effect2_dropShadow_404_14238" result="shape"/></filter><filter id="filter4_b_404_14238" x="441.116" y="382" width="154.812" height="88" filterUnits="userSpaceOnUse" color-interpolation-filters="sRGB"><feFlood flood-opacity="0" result="BackgroundImageFix"/><feGaussianBlur in="BackgroundImage" stdDeviation="1"/><feComposite in2="SourceAlpha" operator="in" result="effect1_backgroundBlur_404_14238"/><feBlend in="SourceGraphic" in2="effect1_backgroundBlur_404_14238" result="shape"/></filter></defs></svg>