<svg width="252" height="29" fill="none" xmlns="http://www.w3.org/2000/svg"><g clip-path="url(#clip0_1_89593)"><path d="M106.482 8.045l-4.254 11.018-5.134-11.018h-2.956l-4.775 11.267L85.01 8.045h-5.613l8.769 20.926 1.748.002 5.648-12.363 5.675 12.371h1.748l8.803-20.936h-5.306zm23.549 11.765l-13.826-.01c.343 1.345 1.001 2.383 1.965 3.115.967.732 2.166 1.096 3.594 1.096 1.935 0 3.763-.713 5.484-2.142l2.222 3.951c-2.331 2.118-4.956 3.174-7.867 3.172-3.098-.003-5.668-1.07-7.706-3.204-2.04-2.133-3.056-4.774-3.056-7.924.002-3.12.991-5.753 2.966-7.897 1.975-2.145 4.418-3.217 7.332-3.217 2.728.003 4.953.949 6.672 2.839 1.721 1.89 2.58 4.238 2.577 7.045a14.643 14.643 0 01-.357 3.176zm-12.075-7.221c-.848.772-1.431 1.817-1.751 3.133l8.979.006c-.025-1.316-.449-2.362-1.269-3.137-.822-.774-1.814-1.16-2.98-1.16-1.135 0-2.13.386-2.979 1.158zm32.436-2.662c1.786 2.104 2.679 4.76 2.676 7.967-.003 3.206-.897 5.86-2.686 7.964-1.788 2.102-4.075 3.153-6.855 3.153-2.781-.003-4.887-1.062-6.315-3.182l-.003 2.662-4.926-.003.02-28.488 5.363.003-.008 9.294c1.404-1.69 3.366-2.53 5.881-2.53 2.783.002 5.067 1.055 6.853 3.16zm-4.219 12.192c.967-1.073 1.451-2.496 1.454-4.27 0-1.746-.489-3.156-1.469-4.231-.98-1.075-2.185-1.611-3.614-1.614-1.376 0-2.55.507-3.516 1.523-.968 1.016-1.452 2.469-1.455 4.356 0 1.917.49 3.372 1.469 4.359.98.989 2.146 1.482 3.495 1.485 1.456 0 2.669-.534 3.636-1.608zm38.7-12.123c2.064 2.134 3.095 4.761 3.093 7.882-.002 3.12-1.037 5.753-3.103 7.9-2.066 2.147-4.572 3.217-7.51 3.214-2.94-.003-5.422-1.07-7.449-3.204-2.024-2.133-3.036-4.774-3.036-7.924.003-3.12 1.022-5.747 3.064-7.878 2.041-2.131 4.531-3.196 7.47-3.193 2.917 0 5.405 1.067 7.471 3.203zm-11.127 3.727c-.955 1.101-1.43 2.495-1.433 4.184 0 1.69.475 3.07 1.428 4.145.953 1.075 2.171 1.61 3.653 1.613 1.457 0 2.67-.541 3.637-1.63.968-1.088 1.451-2.46 1.453-4.12.003-1.66-.481-3.048-1.448-4.166-.967-1.117-2.178-1.675-3.634-1.678-1.483 0-2.704.55-3.656 1.652zm16.277 14.519l5.181.002.01-14.9 4.183.004.002-4.766-4.183-.002.002-.257c0-1.154.283-1.968.846-2.448s1.433-.72 2.609-.72c.264 0 .544.016.841.044l.003-4.768a9.045 9.045 0 00-2.145-.251c-2.276-.003-4.068.634-5.374 1.908s-1.96 3.188-1.96 5.74l-.015 20.414zm11.22 0l5.181.002.009-14.9 4.183.004.003-4.766-4.183-.002.002-.257c0-1.154.283-1.968.845-2.448.564-.48 1.434-.72 2.61-.72.263 0 .544.016.841.044l.002-4.768a9.03 9.03 0 00-2.144-.251c-2.276-.003-4.069.634-5.374 1.908-1.306 1.274-1.96 3.188-1.96 5.74l-.015 20.414zm-40.835-16.23l-.004 8.664c0 1.204.29 2.054.873 2.555.583.501 1.483.753 2.701.753.476 0 1.007-.043 1.59-.129l-.003 4.852a9.044 9.044 0 01-2.939.47c-2.356-.003-4.211-.668-5.561-2-1.349-1.332-2.024-3.33-2.021-5.992l.004-9.178.003-4.895.002-7.083 5.363.003-.002 7.082-.006 4.898z" fill="#17449C"/><path d="M161.813 8.096l4.539.002-.003 4.895-4.538-.002.002-4.895zm69.451 11.787l-13.825-.011c.342 1.345 1 2.383 1.965 3.115.967.732 2.165 1.096 3.593 1.096 1.935 0 3.763-.713 5.485-2.142l2.222 3.952c-2.332 2.117-4.956 3.174-7.868 3.17-3.097-.002-5.667-1.069-7.706-3.203-2.039-2.133-3.056-4.774-3.056-7.924.003-3.12.99-5.753 2.964-7.9 1.974-2.144 4.418-3.217 7.332-3.217 2.728.003 4.953.95 6.672 2.84 1.722 1.89 2.579 4.237 2.577 7.044a14.36 14.36 0 01-.355 3.18zm-12.072-7.222c-.847.772-1.431 1.817-1.751 3.133l8.979.006c-.024-1.317-.449-2.362-1.269-3.137-.822-.774-1.814-1.16-2.98-1.16-1.138 0-2.13.386-2.979 1.158zm32.781 7.235l-13.825-.01c.341 1.345.999 2.383 1.964 3.114.967.732 2.165 1.097 3.593 1.097 1.935 0 3.763-.713 5.485-2.142l2.222 3.951c-2.332 2.118-4.955 3.174-7.867 3.172-3.098-.003-5.668-1.07-7.707-3.204-2.038-2.134-3.056-4.774-3.056-7.924.003-3.12.99-5.753 2.965-7.9 1.973-2.145 4.417-3.217 7.331-3.217 2.729.003 4.954.949 6.672 2.839 1.722 1.89 2.579 4.238 2.578 7.045a14.6 14.6 0 01-.355 3.18zm-12.074-7.222c-.849.772-1.431 1.818-1.751 3.134l8.978.005c-.025-1.316-.448-2.361-1.27-3.136-.821-.775-1.813-1.16-2.978-1.16a4.285 4.285 0 00-2.979 1.157z" fill="#17449C"/><path d="M54.321 27.368c0 .897-.68 1.632-1.51 1.632H42.278c-.83 0-1.51-.735-1.51-1.632V15.984c0-.897.68-1.632 1.51-1.632h10.533c.83 0 1.51.735 1.51 1.632v11.384z" fill="#07BFDD"/><path d="M68.046 13.016c0 .897-.68 1.633-1.51 1.633H56.002c-.83 0-1.51-.736-1.51-1.633V1.633c0-.897.68-1.633 1.51-1.633h10.532c.83 0 1.511.736 1.511 1.633v11.383z" fill="#007FFF"/><path d="M27.259 27.368c0 .897-.68 1.632-1.51 1.632H15.215c-.83 0-1.51-.735-1.51-1.632V15.984c0-.897.68-1.632 1.51-1.632h10.532c.83 0 1.51.735 1.51 1.632v11.384z" fill="#1DA5F8"/><path d="M13.554 13.017c0 .897-.68 1.633-1.51 1.633H1.51c-.83 0-1.51-.733-1.51-1.633V1.634C0 .736.68 0 1.51 0h10.533c.83 0 1.51.735 1.51 1.633v11.383z" fill="#8CC936"/></g><defs><clipPath id="clip0_1_89593"><path fill="#fff" d="M0 0h252v29H0z"/></clipPath></defs></svg>