<svg width="240" height="47" fill="none" xmlns="http://www.w3.org/2000/svg"><path d="M16.883 4.774c7.997 0 13.975 4.473 15.914 11.79H23.83c-1.373-2.927-3.958-4.309-7.028-4.309-5.008 0-8.482 3.74-8.482 9.758 0 6.017 3.474 9.757 8.482 9.757 3.07 0 5.655-1.463 7.028-4.31h8.967c-1.939 7.319-7.917 11.791-15.914 11.791C6.947 39.17 0 32.096 0 21.931 0 11.767 6.947 4.774 16.883 4.774zm32.231 34.559c-7.835 0-13.732-5.285-13.732-13.823s6.058-13.824 13.894-13.824S63.17 16.973 63.17 25.51s-6.22 13.823-14.056 13.823zm0-7.156c2.909 0 5.655-2.195 5.655-6.667 0-4.554-2.666-6.668-5.574-6.668-2.989 0-5.574 2.114-5.574 6.668.081 4.472 2.505 6.667 5.493 6.667zm30.293 7.156c-7.835 0-13.732-5.285-13.732-13.823s6.058-13.823 13.894-13.823 13.894 5.285 13.894 13.823-6.22 13.823-14.055 13.823zm0-7.155c2.909 0 5.655-2.196 5.655-6.668 0-4.554-2.666-6.668-5.574-6.668-2.989 0-5.574 2.114-5.574 6.668 0 4.472 2.505 6.668 5.493 6.668zM96.371 4.774h8.159v18.214l8.078-10.895h10.097l-11.066 13.416 11.228 13.417H112.77l-8.159-11.303v11.303h-8.16V4.774h-.08zm28.274.082c0-2.52 1.938-4.472 4.846-4.472 2.908 0 4.847 1.951 4.847 4.472 0 2.44-1.939 4.39-4.847 4.39-2.908 0-4.846-1.95-4.846-4.39zm.807 7.155h8.159v26.834h-8.159V12.01zm24.638 27.322c-7.836 0-13.49-5.285-13.49-13.823s5.573-13.824 13.49-13.824c7.755 0 13.329 5.204 13.329 13.417 0 .732-.081 1.626-.162 2.44h-18.499c.324 3.496 2.424 5.122 5.09 5.122 2.261 0 3.554-1.138 4.281-2.602h8.724c-1.373 5.204-6.058 9.27-12.763 9.27zm-5.251-16.425h10.259c0-2.928-2.261-4.635-5.008-4.635s-4.766 1.626-5.251 4.635zm56.305 16.425c-7.836 0-13.491-5.285-13.491-13.823s5.574-13.823 13.491-13.823c7.755 0 13.328 5.204 13.328 13.416 0 .732-.08 1.627-.161 2.44h-18.499c.323 3.496 2.424 5.122 5.089 5.122 2.262 0 3.555-1.138 4.282-2.602h8.724c-1.373 5.204-6.139 9.27-12.763 9.27zm-5.332-16.425h10.259c0-2.927-2.262-4.635-5.008-4.635-2.666 0-4.766 1.626-5.251 4.635zm33.443 16.425c-7.109 0-11.875-3.984-12.278-9.188h8.078c.161 1.87 1.858 3.09 4.119 3.09 2.101 0 3.232-.976 3.232-2.196 0-4.31-14.541-1.22-14.541-11.059 0-4.553 3.878-8.293 10.825-8.293 6.866 0 10.743 3.821 11.228 9.107h-7.593c-.243-1.79-1.616-3.009-3.958-3.009-1.939 0-2.989.732-2.989 2.033 0 4.31 14.459 1.22 14.621 11.302.081 4.635-4.039 8.213-10.744 8.213z" fill="#404041"/><path d="M171.901 12.5h-8.482l7.755 14.474h8.482L171.901 12.5z" fill="#0056A7"/><path d="M171.013 26.567l.242.407h8.482l-5.574-10.164-3.15 9.757z" fill="#2E3191"/><path d="M186.521.303l-15.267 26.67h8.482L195.003.303h-8.482zm-15.267 30.654h8.24v8.375h-8.24v-8.375z" fill="#0056A7"/></svg>